<?xml version="1.0" encoding="UTF-8"?>
<svg xmlns="http://www.w3.org/2000/svg" viewBox="0 0 154 27" fill="currentColor">
  <path d="M24.1,25.2c6.7,0,9.9-3.4,9.9-7.3,0-9-14.5-5.6-14.5-10.8s1.5-3.3,5.3-3.3c2.4,0,4.7.7,6.8,1.9l1.4-3.5C30.5.7,27.7,0,24.8,0,18.1,0,15,3.4,15,7.3c0,9.1,14.6,5.6,14.6,10.9s-1.6,3.2-5.4,3.2c-2.9,0-5.7-1-8.1-2.7l-1.6,3.5c2,1.8,5.8,2.9,9.7,2.9ZM45.1,18.9c2.1,0,3.8-1.6,3.9-3.7s-1.6-3.8-3.7-3.9-3.8,1.6-3.9,3.7c0,0,0,0,0,0,0,2.1,1.6,3.8,3.7,3.8,0,0,0,0,0,0ZM57.8,24.9h4.5V.4h-4.5v24.5ZM75,18.9c2.1,0,3.8-1.6,3.9-3.7s-1.6-3.8-3.7-3.9-3.8,1.6-3.9,3.7c0,0,0,0,0,0,0,2.1,1.6,3.8,3.7,3.8,0,0,0,0,0,0ZM97.7.4h-10.1v24.5h4.6v-7.1h5.5c6.4,0,10.4-3.3,10.4-8.7S104.2.4,97.7.4ZM97.5,13.9h-5.3V4.2h5.3c4,0,6.1,1.8,6.1,4.9s-2.1,4.9-6.1,4.9ZM118.9,18.9c2.1,0,3.8-1.6,3.9-3.7s-1.6-3.8-3.7-3.9-3.8,1.6-3.9,3.7c0,0,0,0,0,0,0,2.1,1.6,3.8,3.7,3.8,0,0,0,0,0,0h0ZM149.3,24.9h4.8L143,.4h-4.5l-11,24.5h4.7l2.4-5.7h12.3l2.4,5.7ZM136.1,15.6l4.6-10.7,4.6,10.7h-9.2Z"/>
</svg>
