<?xml version="1.0" encoding="UTF-8"?>
<svg xmlns="http://www.w3.org/2000/svg" viewBox="0 0 160.44 40" fill="currentColor" fill-rule="evenodd">
  <g>
    <path d="M148.44,31.25c-.3-.16-.8-.18-1.29-.11l-.02,5.28h-7.83s.02-23.42.02-23.42c0-3.29,2.83-5.68,5.98-5.66l5.52.05c3.08.03,5.46,2.68,5.46,5.77v23.27s-7.84-.02-7.84-.02v-5.17ZM148.44,25.24v-12.42s-1.3,0-1.3,0v12.56c.49.16,1.04.19,1.3-.15Z"/>
    <path d="M124.76,7.61v23.35c-.12,3.15-2.57,5.67-5.72,5.67h-5.57c-3.23,0-5.65-2.62-5.72-5.84V7.61s7.84.02,7.84.02v23.39c.35.25.8.24,1.34.09V7.61s7.84,0,7.84,0Z"/>
    <path d="M20.4,30.26c-1.9,7.74-8.54,5.98-14.6,6.16v-6.7s6.94-.02,6.94-.02v-2.75s-4.81-4.01-4.81-4.01c-1.59-1.32-2.2-3.22-2.15-5.24.03-1.27,0-2.44.18-3.68.52-3.53,3.25-6.3,6.91-6.34l7.72-.07v6.67s-6.94.02-6.94.02v2.73s4.76,3.99,4.76,3.99c2.8,2.33,2.26,5.93,1.99,9.24Z"/>
    <path d="M65.64,29.71v6.72s-7.1-.03-7.1-.03c-3.07-.01-5.65-2.57-5.65-5.69V13.26c.02-2.95,2.51-5.59,5.43-5.61l7.32-.05v6.66s-4.93.04-4.93.04v15.38s4.93.03,4.93.03Z"/>
    <path d="M75.6,7.54h4.37s0,21.73,0,21.73c0,1.76-.36,3.41-1.3,4.81-1.16,1.73-3.11,2.33-5.13,2.32-2.61-.02-4.8-1.43-5.56-3.95-.34-1.13-.47-2.27-.47-3.52V7.53s4.31,0,4.31,0v21.57c-.01,1.43.35,3.2,1.96,3.17,1.75-.04,1.79-2.07,1.87-3.51l-.03-21.22Z"/>
    <polygon points="48.09 7.55 43.19 24.28 43.21 35.92 38.83 35.93 38.83 24.25 33.99 7.54 38.36 7.51 41.05 18.1 43.75 7.52 48.09 7.55"/>
    <polygon points="102.59 35.91 98.28 35.93 98.3 11.45 94.12 11.42 94.14 7.52 106.76 7.52 106.75 11.42 102.6 11.46 102.59 35.91"/>
    <path d="M137.85,35.9l-2.5.02-3.62-12.57-2.1.02.04,12.55h-2.37s0-28.36,0-28.36c1.51-.03,3.04-.04,4.56.02,2.45.09,4.39,1.6,5.02,3.96.91,3.4.92,9.45-2.86,11.31l3.83,13.07ZM134.55,12.29c-.63-2.35-2.71-2.83-4.9-2.66v11.63c.9.06,1.83.11,2.68-.09,3.03-.73,2.89-6.38,2.22-8.87Z"/>
    <path d="M31.86,33.17c-.62,2.17-2.43,3.26-4.53,3.24-4.01-.03-4.96-3.54-4.96-6.9v-15.57c0-1.31.21-2.61.58-3.82.59-1.95,2.36-3.17,4.38-3.02,2.04-.18,3.84,1.03,4.46,2.99.41,1.29.62,2.67.62,4.09v15.1c0,1.31-.2,2.64-.56,3.89ZM30.07,28.77v-14.09c0-1.17-.13-2.31-.32-3.4-.23-1.27-1.15-1.99-2.33-2.01-2.53-.04-2.69,2.88-2.69,5.07v14.59c0,2.24.13,5.27,2.68,5.23s2.65-3.06,2.65-5.4Z"/>
    <polygon points="93.4 35.93 83.24 35.93 83.24 33.46 83.24 9.83 83.24 7.52 87.6 7.53 87.59 31.97 93.4 32.03 93.4 35.93"/>
  </g>
</svg>
