<?xml version="1.0" encoding="UTF-8"?>
<svg xmlns="http://www.w3.org/2000/svg" viewBox="0 -43 450 290" fill="currentColor">
  <g>
    <path d="M159.2,19.2c1.8,27.2,2.2,55.6,2.3,82.9-.1,27.3-.4,55.7-2.3,82.9-1.9-27.2-2.2-55.6-2.3-82.9.1-27.3.5-55.7,2.3-82.9h0Z"/>
    <path d="M150.1,189.6h-17.1c-2.5,0-4.6-2-4.6-4.6V19.2c0-2.5,2-4.6,4.6-4.6h17.1c2.5,0,4.6,2,4.6,4.6v165.9c0,2.5-2,4.6-4.6,4.6h0Z"/>
  </g>
  <g>
    <path d="M21.7,139.8c5.4-2.1,10.8-3.7,16.4-4.9,4.8-.9,9.7,2,11.6,6.4,1.1,2.3,1,5,1.4,7.4,1,6.9,3.2,13.3,11,14.5-8.8,2-13.8-6.2-15.2-13.7-.4-1.7-.6-3.5-.9-5.2-.5-2.2-2-4-4.1-5-1.3-.6-2.7-.7-4.1-.6-5.3.6-10.6,1-16,.9h0Z"/>
    <path d="M50.9,53.7c.5,8.7,5.7,14.9,11.6,20.7,4.2,4.1,8.6,8,13,12,11.9,10.8,24.4,22.4,30.2,37.8,2.7,7.4,3.2,15.5,2.4,23.2-.5-4.7-1.1-9.4-2.4-13.9-4.9-18.3-20.1-31-33.2-43.9-3.4-3.3-6.8-6.7-10-10.2-6.3-6.9-13.2-15.6-11.6-25.6h0Z"/>
    <path d="M80.9,57c-2.5.4-4.8-1.4-5.2-3.9-1.9-12.3-5.9-16.7-14.7-16.7s-14.7,6.8-14.7,17.3,4.7,19.2,23.4,36.5c27.3,24.9,33.8,35.9,33.8,57.2s-16.8,44.9-41.5,44.9-41.1-16.9-43.3-43.1c-.2-2.3,1.5-4.4,3.8-4.8l16-2.9c2.6-.5,5,1.4,5.3,4,1.6,15,7.6,22.4,18.3,22.4s16-7.3,16-19.1-2.4-12.9-6.8-18.9c-4.2-5.5-5.8-7.3-20.5-20.7-22-20.5-29.9-34.4-29.9-53.8S37.4,12,62.1,12s34.9,12.6,39,37.3c.4,2.5-1.3,4.9-3.8,5.3l-16.4,2.4h0Z"/>
  </g>
  <g>
    <path d="M326,19.2c1.8,27.2,2.2,55.6,2.3,82.9-.1,27.3-.5,55.7-2.3,82.9-1.9-27.2-2.2-55.6-2.3-82.9.1-27.3.5-55.7,2.3-82.9h0Z"/>
    <path d="M316.9,189.6h-17.1c-2.5,0-4.6-2-4.6-4.6V19.2c0-2.5,2-4.6,4.6-4.6h17.1c2.5,0,4.6,2,4.6,4.6v165.9c0,2.5-2,4.6-4.6,4.6h0Z"/>
  </g>
  <g>
    <path d="M408.5,123.1c4.5-.7,9.4-1.1,14-1.5,1.6,0,3.3-.3,4.9-.2,4.7.3,9,4.2,9.8,9,.3,1.8.2,5.5.2,7.3,0,12.3-.8,26.1-8.9,36.2,5.3-13.1,4.1-27,4.3-40.8.4-3.7-2.1-7.3-5.9-8.1-1.4-.2-3-.2-4.4-.4-4.5-.3-9.5-.8-14-1.5h0Z"/>
    <path d="M389.3,41c-6.1.3-8.4,6.2-8.3,11.5-.2,5.5,0,11,0,16.5.6,22,.7,44.2,0,66.2,0,5.5-.3,11,0,16.4,0,5.2,2.4,11.3,8.3,11.7-6.4.7-10-5.9-10.6-11.4-.8-5.6-1.1-11.1-1.3-16.6-.7-22.1-.7-44.1,0-66.3.2-5.5.6-11.1,1.3-16.6.5-5.6,4-12.1,10.5-11.3h0Z"/>
    <path d="M428.4,29c8.4,10.3,9,24.4,8.9,37.1,0,.5,0,1.5,0,2,0,5.8-5,11-10.7,10.9-1.5,0-3.1-.2-4.6-.3-4.4-.4-9.1-.8-13.5-1.5,4.3-.7,9.1-1.2,13.5-1.5,1.3-.1,2.6-.2,3.9-.3,2.5-.2,4.9-1.7,6-3.9,1.2-1.9.7-5.6.8-7.7,0-8.9.4-17.7-1.7-26.3-.6-2.9-1.6-5.7-2.6-8.5h0Z"/>
    <path d="M403.9,68.1c0-7.9-.3-14-.5-17.6,0-.1,0-.3,0-.4-1.1-8.3-6.6-13.7-14.1-13.7s-11.5,4.2-13.4,11.5c-.8,3.4-1.3,11.8-1.3,26.5v55.6c0,16.8.5,24.1,1.8,27.8,2.1,6.3,6.8,10,12.9,10s13.1-5.8,13.9-14.7c.4-3.9.7-13.3.8-20.9,0-2.5,2.1-4.5,4.6-4.5h17.4c2.5,0,4.6,2,4.6,4.6v5.4c0,18.1-1,24.9-6,34.1-6.6,12.9-19.4,20.5-34.9,20.5s-23.6-5-30.7-13.9c-8.7-10.5-10.5-19.1-10.5-46.4v-59.3c0-27.5,1.8-36.2,10.5-46.7,7.1-8.9,18.4-13.9,30.7-13.9s28.3,7.1,34.9,19.1c4.7,8.7,6,15,6,32v4.9c0,2.5-2,4.6-4.6,4.6h-17.4c-2.5,0-4.5-2-4.6-4.5h0Z"/>
  </g>
  <g>
    <path d="M210.5,108.2c1.8,12.8,2.2,25.6,2.3,38.4,0,12.8-.5,25.6-2.3,38.4-1.8-12.8-2.2-25.6-2.3-38.4,0-12.8.5-25.6,2.3-38.4h0Z"/>
    <path d="M273,19.2c1.8,27.2,2.2,55.6,2.3,82.9-.1,27.3-.5,55.7-2.3,82.9-1.9-27.2-2.2-55.6-2.3-82.9.1-27.3.5-55.7,2.3-82.9h0Z"/>
    <path d="M213.4,16.2c6,11.9,10.8,24.3,15.2,36.8,4.3,12.6,8.2,25.2,10.8,38.3-6.1-11.9-10.8-24.3-15.2-36.8-4.3-12.6-8.2-25.2-10.8-38.3h0Z"/>
    <path d="M242.9,186.6l-28.1-79.8c-1.7-4.8-8.9-3.6-8.9,1.5v76.8c0,2.5-2,4.6-4.6,4.6h-15.3c-2.5,0-4.6-2-4.6-4.6V19.2c0-2.5,2-4.6,4.6-4.6h18.7c1.9,0,3.7,1.2,4.3,3.1l26,75.2c1.7,4.9,8.9,3.7,8.9-1.5V19.2c0-2.5,2-4.6,4.6-4.6h15.3c2.5,0,4.6,2,4.6,4.6v165.9c0,2.5-2,4.6-4.6,4.6h-16.6c-1.9,0-3.7-1.2-4.3-3.1h0Z"/>
  </g>
</svg>
