<?xml version="1.0" encoding="UTF-8"?>
<svg xmlns="http://www.w3.org/2000/svg" viewBox="29 0 152 32" fill="currentColor">
  <path d="M76.98,29.58c-3.11-.93-5.35-3.41-5.33-6.42,1.7-.69,3.15-1.19,4.76-1.62,1.44,4.07,6.37,4.18,8.79,2.73.56-.34,1.08-1.56.99-2.13-.09-.64-1.1-1.67-1.84-1.8l-7.09-1.25c-3.83-.67-5.8-3.97-5.43-7.61.32-3.13,2.16-5.42,5.19-6.39,5.44-1.73,13.17-.85,14.39,5.71-1.57.81-3.08,1.45-4.89,2.08-1.37-3.08-3.93-3.88-6.93-3.13-.98.24-1.87,1.03-1.97,1.99-.09.9.76,1.97,1.82,2.16l6.69,1.2c3.84.69,6,3.72,5.79,7.5-.41,7.29-9.25,8.65-14.94,6.96Z"/>
  <path d="M120.01,27.27h-10.05c-.21.6-.81,2.12-1.46,2.25-1.68.32-3.22.28-5.28-.07l9.08-24.35c1.95-.2,3.52-.2,5.5,0l9.03,24.12c-1.56.74-6.87,1.4-6.82-1.95ZM116.99,18.27l-2.11-12.01-2.06,11.92,4.17.09Z"/>
  <path d="M101.06,28.26c0,2.3-4.19,1.47-5.78,1.13V5.25c1.91-.45,3.67-.42,5.74-.03l.04,23.04Z"/>
</svg>
