<?xml version="1.0" encoding="UTF-8"?>
<svg xmlns="http://www.w3.org/2000/svg" viewBox="0 0 48 50" fill="currentColor">
  <g>
    <path d="M26.02,4c4.57,0,10.34,3.24,13.72,6.74,2.63,2.72,4.42,6.03,5.22,9.73,1.69,7.82-.43,14.93-6.16,20.48-1.95,1.89-4.19,3.33-6.73,4.32-7.69,2.99-16.28,1.53-22.41-4.05-5.24-4.76-7.68-11.48-6.84-18.51.55-4.68,2.65-8.89,5.89-12.25,3.75-3.89,8.54-6,13.84-6.46h3.47ZM32.11,44.27c7.81-3.3,12.71-11.06,12.51-19.4s-5.41-15.71-13.27-18.68c-4.33-1.63-9.16-1.75-13.56-.34C9.47,8.54,3.81,16.19,3.56,24.79s5.01,16.65,13.21,19.76c4.9,1.86,10.45,1.78,15.34-.28Z"/>
    <path d="M21.09,38.06l-4.74-4.8,6.75-1.78c2.33-.61,4.6.98,4.94,3.29s-1.36,4.46-3.78,4.59c-1.25.07-2.27-.39-3.17-1.31Z"/>
    <path d="M31.14,17.22c-.02.27-.45.6-.72.67l-5.14,1.35c-1.89.5-3.85-.28-4.74-1.99s-.43-3.84,1.09-5,3.8-1.17,5.2.23l3.3,3.3c.4.4.68.88,1,1.44Z"/>
    <path d="M14.73,29.26c-1.76.25-3.36-.62-4.13-2.07s-.62-3.38.6-4.58l3.53-3.49c.31-.31.85-.63,1.23-.78.44,0,.66.57.74.91l1.32,5.05c.6,2.31-.87,4.62-3.3,4.97Z"/>
    <path d="M32.25,32.41c-.42.13-.68-.54-.76-.83l-1.41-5.51c-.47-1.82.77-3.64,2.42-4.31s3.69-.13,4.78,1.36,1.08,3.67-.27,5.01l-3.63,3.59c-.27.27-.74.57-1.14.7Z"/>
    <path d="M24.34,25.75c.97.43,2.76.1,2.67,1.65-.03.54-.44.97-.96,1.05-1.35.19-1.34-1.18-1.75-1.94-.11.41.44,1.5-.16,1.55-.23.02-.41-.19-.38-.41.05-.36.08-.59.05-.97l-.38,1.01c-.21.56-.72.84-1.28.76s-.95-.5-.98-1.04c-.09-1.52,1.6-1.21,2.6-1.65l-2.77-.03c-.86,0-1.52-.67-1.63-1.43-.12-.85.35-1.64,1.17-1.91s1.63.06,2.07.81l1.25,2.1c.17-.49-.29-1.5.02-1.75.08-.06.28-.07.38-.03.4.14-.1,1.3.07,1.78.96-1.23,1.33-3.4,3.21-2.95.8.19,1.35.94,1.31,1.79-.04.77-.66,1.58-1.54,1.59l-2.96.04Z"/>
    <path d="M12.25,15.54c1.57.86,2.07.77,3.42,2.35-1.26.84-2.4,1.65-3.67,2.39-1.15.67-2.56.21-3.34-.75-.82-1.01-.74-2.52.12-3.49s2.29-1.15,3.47-.51Z"/>
    <path d="M31.55,33.84c1.18.8,2.07,2.75,2.56,3.96s-.08,2.56-1.09,3.19c-1.13.69-2.55.51-3.4-.39-.94-.99-1.01-2.39-.26-3.51l2.18-3.24Z"/>
    <path d="M32.51,17.9c.54-.63,1.08-1.18,1.76-1.52l1.76-.88c1.19-.6,2.56-.38,3.4.62s.88,2.4.08,3.41-2.22,1.38-3.39.76l-3.61-2.39Z"/>
    <path d="M15.66,32.87c-.5.56-.91,1.07-1.49,1.37l-2.05,1.04c-1.21.62-2.51.35-3.38-.62s-.85-2.41-.08-3.44,2.32-1.42,3.42-.7l3.58,2.35Z"/>
    <path d="M34.09,34.29c-.64-.32-1.07-.88-1.58-1.42l3.36-2.24c.98-.65,2.11-.62,3.07.06,1.17.84,1.46,2.35.77,3.57s-2.29,1.7-3.59,1.05l-2.04-1.02Z"/>
    <path d="M16.64,16.91c-1.18-.77-2.07-2.71-2.57-3.9-.52-1.26.05-2.61,1.13-3.25,1.15-.68,2.59-.44,3.45.53s.84,2.39.09,3.51l-2.1,3.11Z"/>
    <path d="M34.11,12.94c-.49,1.3-1.38,3.2-2.59,3.96l-2.15-3.2c-.74-1.11-.72-2.43.15-3.43.82-.94,2.23-1.19,3.35-.58s1.72,1.98,1.24,3.24Z"/>
    <path d="M18.87,37.19c.94,1.41.39,3.23-1.04,3.94s-3.19,0-3.76-1.54c-.28-.77-.19-1.53.18-2.25.75-1.46.89-2.18,2.18-3.3.43.4.84.76,1.15,1.21l1.29,1.94Z"/>
    <path d="M16.14,32.44c-.51.22-3.01-2.3-3.43-2.82l1.8.1c.6.03,1.27-.17,1.75-.5l1.26-.88-.98,3.68c-.04.13-.28.36-.4.42Z"/>
    <path d="M35.45,21.17c-1.85-.46-3.42-.02-4.8,1.3l.95-3.66c.05-.19.42-.55.6-.48.67.26,1.13.7,1.65,1.14l1.6,1.7Z"/>
    <path d="M17.7,17.87c-.27-.07-.54-.39-.72-.61.34-.51.6-1.04,1.03-1.45l1.77-1.68c-.42,1.8.05,3.26,1.27,4.6l-3.35-.86Z"/>
    <path d="M31.21,33.5c-.37.6-.73,1.16-1.23,1.65l-1.55,1.51c.37-1.77-.07-3.19-1.19-4.58l3.29.83c.24.06.46.34.69.59Z"/>
    <path d="M35.35,35.86c.28.19.43.4.4.66-.03.24-.22.48-.43.54-.28.08-.57-.02-.75-.28-1.62-2.43-3.71-4.44-6.1-6.11-.35-.24-.47-.61-.23-.96.19-.27.74-.34.99.02,1.67,2.38,3.67,4.48,6.11,6.14Z"/>
    <path d="M18.92,21.03c-1.51-2.24-3.95-4.73-6.22-6.2-.34-.22-.35-.67-.12-.93.26-.29.75-.3,1,.07,1.63,2.45,3.73,4.47,6.15,6.16.36.25.44.69.17.97s-.73.28-.97-.07Z"/>
    <path d="M29.33,20.95c-.16.24-.44.39-.62.37-.26-.02-.51-.23-.57-.43-.08-.27.02-.56.26-.73,2.39-1.66,4.49-3.68,6.12-6.09.24-.36.54-.46.9-.32.24.1.5.75.18.97-2.45,1.68-4.56,3.72-6.28,6.23Z"/>
    <path d="M13.53,36.84c-.22.34-.67.29-.9.09-.21-.19-.35-.68-.04-.89,1.08-.73,2.13-1.57,3.07-2.48.05-.05.25-.07.3-.03.07.05.06.26-.02.34-.86.88-1.69,1.89-2.42,2.97Z"/>
    <path d="M17.67,32.23c-.3.27-.64.42-1.01.35.85-.97,1.61-1.89,2.34-2.91.21-.3.72-.21.9,0,.25.29.2.71-.14.94-.72.5-1.4,1.01-2.09,1.62Z"/>
  </g>
</svg>
